<?xml version="1.0" encoding="UTF-8" standalone="no"?>
<!-- Created with Inkscape (http://www.inkscape.org/) -->

<svg
   xmlns:svg="http://www.w3.org/2000/svg"
   xmlns="http://www.w3.org/2000/svg"
   version="1.1"
   width="100%"
   height="100%"
   viewBox="0 0 348 280.9"
   id="Layer_1"
   xml:space="preserve"><defs
   id="defs7" />
<path
   d="m 304,46.5 c -11.2,1 -22.4,2.1 -33.7,1.9 -5.2,-0.1 -10.3,-0.6 -15.5,-0.9 -6,-0.3 -13.4,-0.8 -19.4,0 -10.1,1.5 -20.6,8.8 -29.3,13.7 -8.9,5.1 -21.2,7.3 -31.3,8.4 -5,0.5 -9.7,-2.2 -14.6,-3 -6.2,-1.1 -12.1,-1.1 -18.4,-1.2 -6.8,0 -11.1,1.9 -17.4,4.6 -5.5,2.4 -10,3.8 -15.9,5.1 -5.5,1.2 -10.8,3 -16.2,4.5 -4.5,1.3 -8.5,2 -12.2,4.6 -9.9,7 -21.1,13.2 -29.3,22.1 -2,2.1 -4.5,4.1 -6,6.5 -2.2,3.3 -3.5,7.6 -5.1,11.2 -2.4,5.5 -3.5,11.1 -4,17.1 -0.5,6.7 0,13.7 0,20.4 0,5.4 3.8,10.1 6.2,14.8 -0.4,-7.4 -2.4,-14 -1.2,-21.4 1.2,-7.3 5,-14.6 9.6,-20.3 3.8,-4.8 8.5,-10.6 13.6,-14 3.5,-2.3 7.4,-4.1 10.8,-6.5 2.9,-2.1 5.3,-5.2 8.3,-7 5.4,-3.3 12.4,-4.7 18.3,-7.2 7.6,-3.2 14,-5.8 22,-7.4 13.4,-2.7 26.7,-6.8 38.4,-14.1 3.6,-2.2 6.6,-5 10.7,-6 4.1,-1 8.2,-1.9 12.3,-2.8 3.9,-0.9 8,-1.3 11.9,-2.4 3.6,-1 6.2,-2.9 10,-2.9 -8.1,6.5 -18.4,9.5 -27.4,14.3 -10.8,5.7 -19.7,12.7 -26.8,22.6 -6.1,8.6 -13.6,18.5 -16.3,28.9 -1.3,5.1 -3,10.9 -2.7,16.1 0.4,5.9 3.1,10.9 3.9,16.6 0.8,6 0.8,12.3 1.2,18.3 0.4,5.9 -1.7,17.3 4,21.5 5.7,-13 4.1,-26.5 5.2,-40.3 1.1,-13.8 10.6,-25.5 18.7,-36.2 4.5,-5.9 8,-12.5 11.8,-18.9 -1.8,7.2 -3.6,14.3 -5.6,21.5 -1.9,7.1 -1.4,14 -1,21.3 0.8,14.1 6.5,27 7.1,41.2 0.3,7.7 0,15.4 -0.1,23.1 3.4,-0.2 2.7,-4.2 3.4,-6.7 0.8,-2.6 2.1,-4.9 2.6,-7.6 1.2,-5.7 2.4,-12.6 2.3,-18.5 -0.1,-6.8 -2,-12.9 -0.8,-19.7 1,-5.9 3.3,-11.8 5,-17.5 1.9,-6.2 3,-12.2 4.2,-18.5 1.1,-5.8 3.3,-10.9 4.6,-16.5 1.7,-7 0,-13.1 0.2,-20.1 0.1,-4.8 1.8,-12.2 4.5,-16.2 3.3,-4.9 7.1,-9.3 12.1,-12.5 2.7,-1.7 5.5,-3.3 8.2,-5.2 1,-0.7 2.5,-2.3 3.6,-2.1 2.6,0.4 1.3,1.8 0.7,3.1 -2.8,5.9 -6.8,9.9 -7.9,16.5 -1.1,6.4 -1.6,12.7 -4.1,18.7 -2.5,5.8 -6,10.5 -8,16.6 -1.8,5.7 -2.1,10.6 -2.2,16.5 -0.1,12.3 -0.9,25.2 0.9,37.5 1.9,12.9 5.2,26.1 10.4,38 1.4,3.2 3.8,7 4.6,10.5 0.5,2.2 -0.2,4.8 -0.7,7.1 -1.2,6 -2.4,12 -4.8,17.6 -1.2,2.8 -2.4,5.4 -3.9,8.1 5.4,3.7 12.5,-10.2 14.7,-13.8 0.7,7.8 0.7,15.1 -0.3,22.8 4.7,1.4 10.2,-15.8 10.9,-19.6 1.8,-8.7 0.1,-18 0.3,-26.8 0.1,-7.3 -1.6,-17.4 1.5,-23.8 1.8,-3.8 3.6,-6.5 4.7,-10.5 1.1,-4.1 2.1,-8 3.8,-11.9 6.3,-14.3 13.6,-28 16.7,-43.5 1,-4.9 2.8,-10.2 3,-15.2 0.2,-3 -0.8,-6.2 -0.9,-9.3 -0.1,-9 0.4,-16.1 4.1,-24.3 2.1,-4.7 4.2,-6.9 7.8,-10.5 2.9,-2.9 6.5,-2.4 10.5,-3 5.3,-0.9 11.6,-1.2 16.6,-3.1 1.6,-0.6 3,-0.9 2.4,-3.1 -0.7,-1.3 -3.1,-0.9 -5.3,-1.3 z M 200.8,75 c -2.6,4.9 -6.6,9 -12,10.5 0,-3.9 -1.5,-8.8 2.6,-10.8 1.6,-0.8 3.6,-0.7 5.3,-1.4 1.9,-0.8 3.2,-2.3 5.3,-1.9 -0.4,1.3 -0.8,2.4 -1.2,3.6 z M 274,58.8 c -1.6,2.1 -3.5,4.3 -4.8,6.6 -1.6,2.8 -2.3,6.7 -4.3,9.2 -1.8,2.2 -5.2,4 -7.4,6 -2.2,2.1 -4.1,4.4 -6,6.7 -4.2,5.3 -7,9.7 -9.7,15.9 -2.6,5.9 -4.3,12.2 -7.1,17.9 -2.8,-0.6 -3.2,-7.7 -4,-10.3 -1.1,-4 -2.3,-6.8 -5.4,-9.7 -1.9,-1.8 -2.3,-1.5 -2.7,-3.8 -0.4,-1.8 0,-3.9 0,-5.8 0,-4.6 0.8,-8.4 1.6,-13 1.4,-8.4 3.8,-14.2 8.8,-21.1 2.6,-3.6 3.2,-4 7.7,-3.6 3.9,0.4 8,0 11.9,0 4.5,0 9.1,0.8 13.6,0.7 1.9,0 4.1,-1 6,-0.7 2.5,0.6 4.5,3 1.8,5 z"
   id="path3" />
</svg>