<?xml version="1.0" encoding="UTF-8" standalone="no"?>
<!-- Created with Inkscape (http://www.inkscape.org/) -->

<svg
   xmlns:svg="http://www.w3.org/2000/svg"
   xmlns="http://www.w3.org/2000/svg"
   version="1.1"
   width="100%"
   height="100%"
   viewBox="0 0 422 311.9"
   id="Layer_1"
   xml:space="preserve"><defs
   id="defs7" />
<path
   d="m 207.7,95.1 c -5.3,4.1 -10.1,8.7 -14.9,13.4 -5.2,5.1 -12.3,7.6 -18.4,11.7 -11.1,7.3 -19.6,17.5 -28.3,27.5 -8.7,10 -17.4,19.7 -26.5,29.3 -4.5,4.7 -9,9.8 -14,13.9 -5.5,4.6 -12.4,8.2 -18.5,12.1 -6.1,3.9 -10.9,9.5 -17,13.7 -3.2,2.2 -5.6,4 -8.4,6.5 -1.5,1.4 -9.8,5.5 -4.6,6.5 -4.1,2.3 0.5,2.4 2.7,1.6 3.5,-1.3 6.8,-2.8 10.3,-4.2 -1.1,1 -5.9,3.9 -4.9,5.5 0.7,1 6.6,-0.7 8.1,-0.9 -6.6,7.1 -13.5,14 -20,21.2 -3.3,3.7 -3.1,6.7 2.7,6.7 5.3,0 8.2,-1.9 12.5,-4.7 7.4,-4.8 14.4,-10.1 21.2,-15.7 3.8,-3.1 7.5,-6.4 11.2,-9.6 4.3,-3.7 6.5,-7 12.1,-6.6 -1.3,1.4 -3.9,3.3 -4.8,4.9 -0.8,1.4 -0.5,3.9 -0.9,5.6 0.9,-0.3 2.4,-1.2 3.3,-1.1 0.7,0.1 0.3,2 1.7,2.1 2,0.2 4.5,-2.3 6.1,-3.3 3.2,-2 6.8,-4.8 10.7,-5.1 -0.9,1.2 -1.7,2.6 -1.5,4.2 2.4,-0.9 4.9,-1.6 6.8,-3.4 0.2,0.6 0.8,1 1.1,1.5 2.9,-2.8 2.8,-3.7 6.3,-2.9 0.9,0.2 1,1.5 1.8,1.7 1.2,0.2 4.1,-1 5.3,-1.3 2.3,-0.7 5,-1.2 7.1,-2.5 2.6,-1.6 4.4,-4.2 7.2,-5.7 1.1,6.6 3.2,11.4 5.6,17.6 2,5.2 4.3,10.1 11,10.7 -0.1,-1.3 0,-5.4 1.4,-5.9 1.8,-0.6 3.2,3.3 4.1,4.6 0.5,0.8 3.5,4 3.4,4.6 -0.2,2.2 -4.5,1.2 -6.4,1.3 -2.4,0.2 -4.5,1.1 -6.8,1.2 -2.6,0.1 -4,-0.9 -6.6,0.1 -2.7,1.1 -7.3,6.4 -4.4,9.2 0.8,-3.9 3.8,-6.5 7.9,-6.2 -1.7,5.4 6.4,3.6 8.9,3.3 4.1,-0.5 7.1,1.1 11.1,1.7 3.9,0.6 8.1,-0.5 11.8,0.7 2.2,0.7 8.8,7 9.8,3 2.5,0.7 3.9,2.3 5.8,3.9 0.2,-2.9 -3,-5.3 -5.1,-6.8 6.6,-1 11.7,1.2 18,2.5 3.8,0.8 2.6,-1.5 5.2,-1.9 2.8,-0.4 4.5,3.1 4.4,5.3 2,-1.6 0.9,-4.8 -0.7,-6.5 -2.2,-2.3 -4.8,-2.1 -7.7,-2.7 -3.3,-0.7 -5.5,-1.8 -8.4,-2.9 -1.4,-0.5 -2.9,-0.4 -4.3,-0.7 -0.8,-0.2 -1.7,0.3 -2.5,0.1 -0.7,-0.2 -0.9,-1.3 -1.8,-1.4 -4.5,-0.7 -11.6,2.3 -16,-0.4 -3.2,-1.9 -6.1,-12.1 -5.2,-14.7 0.9,-2.4 3.2,-4.7 4.2,-7.1 1.2,-2.9 1.9,-5.8 2.7,-8.8 1.5,-6 3.7,-11.7 5.6,-17.7 1,-3 1.7,-6.1 2.7,-9.1 0.9,-2.6 0.9,-6.8 2.2,-9.1 0.9,-1.7 4.4,-3 6.5,-4.6 2.3,-1.7 4.4,-3.8 6.8,-5.4 4.9,-3.4 10.3,-6.4 15,-10.1 4.3,-3.4 6.1,-11.1 8.1,-16 0.5,-1.3 0.7,-2.5 1.3,-3.9 0.6,-1.3 1.3,-2.2 1.8,-3.6 1,-3 0,-5.2 0,-8 -0.1,-5.9 3.4,-11.3 5.2,-16.9 1.8,-5.4 2.9,-11.4 5.3,-16.6 1.2,-2.6 3.3,-4.6 4.7,-6.9 1.9,-3.1 0.7,-4.2 4.6,-4 3.1,0.1 1,-0.9 2.8,2.6 1.2,2.2 1,2.5 1.8,-0.9 1.4,-6.5 -3.2,-10.8 -4.9,-16.3 -0.9,-3 -1.8,-5.5 -4.3,-7.4 -2.9,-2.1 -7.2,-2.9 -10.6,-3.4 -5.9,-0.9 -13.3,-0.2 -18.5,2.8 -3,1.7 -6.6,3.4 -9.3,5.6 -2.6,2.1 -4.2,5.3 -6.5,7.6 -5.2,4.8 -10,10.3 -15.2,14.9 z"
   id="path3" />
</svg>