<?xml version="1.0" encoding="UTF-8" standalone="no"?>
<!-- Created with Inkscape (http://www.inkscape.org/) -->

<svg
   xmlns:svg="http://www.w3.org/2000/svg"
   xmlns="http://www.w3.org/2000/svg"
   version="1.2"
   width="595.28003"
   height="841.89001"
   viewBox="0 0 595.28 841.89"
   id="Layer_2"
   xml:space="preserve"><defs
   id="defs7" />
<path
   d="m -151,343.333 c 0,0 -33.333,-16.667 -29.333,-52.667 4,-36 34.667,-55.333 34.667,-55.333 l -10.667,-4.667 0.667,-5.333 -7.5,-7.333 h 4.833 l -4.833,-14 h 5.5 l -2.667,-19.333 6,8 1.333,-14 7.333,2.667 -3.333,-14.667 h 3.333 l 6.667,-14 v 12.667 c 0,0 3.333,-27.333 7.333,-30 4,-2.667 4,6 4,6 l 5.333,-6.51 h 2.667 L -115,122 l 4,3.333 5.333,-9.333 v 4.667 L -94.333,106 v 9.333 c 0,0 12.667,-16.667 18.667,-17.333 6,-0.666 8.666,3.333 8.666,3.333 L -61.667,97.925 -50.333,92 v 7.333 c 0,0 4,-10.667 6.667,-7.333 2.667,3.334 6,7.333 6,7.333 l 6,-2 6,-5.979 v 5.979 l 8,-5.979 v 3.312 l 8,-3.312 c 0,0 28.667,-14.021 32.667,-12.688 4,1.333 -3.334,9.334 -3.334,9.334 L 31,83.333 v 4 l 15.333,-8.756 v 6.756 L 55.667,82 v 3.333 c 0,0 20,0.667 25.333,-2 5.333,-2.667 30,-14 38,-15.333 8,-1.333 46.667,-4.667 46.667,-4.667 0,0 65.286,-14.525 84,-14.667 36.666,-0.277 101.333,22 101.333,22 0,0 28,-2.666 43.333,6.667 0,0 44.667,28.667 56.667,38 12,9.333 57.334,36.667 76,52 18.666,15.333 57.999,50.667 71.332,68 13.333,17.333 55.332,72.667 55.332,72.667 0,0 65.334,36.667 79.334,47.333 14,10.666 84.667,45.333 100,58 15.333,12.667 93.332,77.333 93.332,77.333 0,0 160,93.332 176.667,102.666 16.667,9.334 69.333,48 69.333,48 0,0 -124.666,-70 -163.333,-82 -38.667,-12 -187.333,-66.666 -187.333,-66.666 0,0 14,10 22,17.333 8,7.333 11.333,10.667 11.333,10.667 0,0 34,14.666 60,33.333 26,18.667 86.667,65.333 86.667,65.333 l 22.666,18 c 0,0 -110.666,-42 -126.666,-43.333 -16,-1.333 -72,-8.667 -102,-16 -30,-7.333 -120,-28 -120,-28 0,0 8.668,23.333 14.001,44 5.333,20.667 12,70.667 12,70.667 0,0 -6,-2.001 -10,-5.334 -4,-3.333 -7.333,-5.332 -7.333,-5.332 0,0 26,102.001 29.333,114.667 3.333,12.666 21.999,102.666 25.333,118.666 3.334,16 11.334,90.667 11.334,90.667 L 730.998,933.333 724.332,934 c 0,0 14,55.333 13.333,57.333 -0.667,2 -29.333,-60.666 -29.333,-60.666 l -66,-158 L 621.665,722 c 0,0 -14,-17.999 -18,-27.333 -3.108,-7.255 -16.285,-29.812 -22.003,-39.502 -1.639,-2.777 -2.664,-4.498 -2.664,-4.498 l -2,10 -12,-12 -1.333,5.333 c 0,0 -15.334,-9.333 -16.667,-18 -1.333,-8.667 -4.666,10e-4 -12.666,-7.333 -8,-7.334 -4.668,13.332 -7.334,14.666 -2.666,1.334 -28,-20.666 -28,-20.666 0,0 -4,16.667 -9.333,22 C 484.332,650 470.998,650 470.998,650 l 10,14.667 -13.333,-5.334 7.333,9.334 c 0,0 -10,-3.334 -8,-1.334 2,2 8.667,10.667 8.667,10.667 l -10,-4 5.333,9.333 c 0,0 -15.333,-4 -13.333,0 0.876,1.752 2.52,4.271 4.09,6.55 2.015,2.923 3.91,5.45 3.91,5.45 l -6.667,-2.666 4,13.333 -6,-5.333 4,17.333 -6,-3.333 3.334,6 -4.667,-0.667 v 4.667 l -5.333,-3.334 -0.667,6 -3.333,-6 -2.667,8 -4.667,-8 -2.666,4 -4,-5.333 -2.667,4 -5.333,-5.333 -18,-11.334 -20.667,-20 c 0,0 -15.165,15.334 -20.916,24.667 -5.751,9.333 -13.084,24.666 -15.084,29.333 -2,4.667 -4.666,10.668 -9.333,11.334 -4.667,0.666 -9.334,-2 -9.334,-2 0,0 -7.333,15.999 -17.333,18.666 -10,2.667 -14.025,-0.666 -14.025,-0.666 0,0 -3.308,5.333 -7.308,3.333 -4,-2 -14,16.667 -20.667,18.667 -6.667,2 -7.333,-2 -7.333,-2 0,0 -8.667,22 -8.667,28 0,6 0,6 0,6 0,0 -5.333,-14.001 -2,-29.334 3.333,-15.333 8.667,-24.666 8.667,-24.666 L 275.665,756 c 0,0 -12,-4.667 -20.667,-2.667 -8.667,2 -19.333,2.667 -23.333,2.667 -4,0 -24,-6 -24,-6 0,0 -16.667,3.999 -25.333,1.333 -8.666,-2.666 -10.667,-7.333 -10.667,-7.333 0,0 -30,3.333 -39.333,2 -9.333,-1.333 -18,-5.999 -17.333,-9.333 0.667,-3.334 0.667,-3.334 0.667,-3.334 0,0 -8,-3.333 -18,2.667 -10,6 -19.333,19.333 -19.333,19.333 0,0 -1.333,-25.332 18.667,-32.666 20,-7.334 27.332,-6.667 27.332,-6.667 l 12.667,1.333 3.333,-2 8.667,4.667 c 0,0 16.667,4 22.667,4 6,0 18.667,1.999 24,3.333 5.333,1.334 11.333,1.334 11.333,1.334 0,0 23.334,0 36.667,-0.667 13.333,-0.667 45.333,-8 45.333,-8 l 4.667,-5.333 c 0,0 14.666,-5.334 19.333,-4.667 4.667,0.667 22.001,-10.001 27.334,-20.667 5.333,-10.666 -9.334,4.668 -18.667,5.334 -9.333,0.666 -34,-1.334 -32,-2.667 2,-1.333 -10,4.666 -13.333,3.333 C 273,694 255.665,710.667 251.665,706 c -4,-4.667 -10,-14.667 -10,-14.667 0,0 -10.667,2 -17.333,2.667 -6.666,0.667 -25.333,1.333 -25.333,1.333 0,0 -16.667,0 -18.667,-4 -2,-4 -12.667,-5.333 -12.667,-5.333 l -1.333,-5.333 c 0,0 -8,1.334 -10,8 -2,6.666 -6.667,19.333 -6.667,19.333 0,0 -6,-19.333 0,-25.333 6,-6 6,-6 6,-6 0,0 -14.667,1.332 -27.333,0.666 -12.666,-0.666 -12,0.668 -18,-2.666 -6,-3.334 -0.667,-10 -0.667,-10 0,0 -7.333,-3.333 -15.333,2 -8,5.333 -18,18.666 -18,18.666 0,0 -6,-5.999 -0.667,-12.666 C 80.998,666 86.331,654 98.998,652 c 12.667,-2 21.333,-0.667 21.333,-0.667 l 22,2 13.333,2 13.333,4 15.333,2 h 19.333 l 16,-1.333 14.667,-0.667 13.335,-1.333 4,-2.667 c 0,0 -4.667,-6.666 -0.667,-12.666 4,-6 12,-8.666 17.333,-2 5.333,6.666 8,9.333 8,9.333 l 10.667,-6.667 c 0,0 8,-0.666 20,-19.333 12,-18.667 19.334,-39.333 19.334,-39.333 0,0 1.283,-26.667 -28.692,-52.667 -29.975,-26 -69.308,-62.667 -75.975,-68.667 -6.667,-6 -47.334,-44.666 -54.667,-48 -7.333,-3.334 -36,-25.334 -42,-26.667 -6,-1.333 -22.667,-9.333 -22.667,-9.333 l 2,5.333 -14,-5.333 1.334,4.667 -23.333,-19.333 0.667,10.667 c 0,0 -4,-1.333 -10.667,-5.333 -6.667,-4 -12,3.333 -12,3.333 l -6,-6.667 -1.333,10 L 21.665,364 l -2,11.333 -9.333,-10 L 0,372.667 -4.335,365.334 -15.002,368 l -3.333,-3.333 -12,1.333 v -7.333 L -39.668,360 v -8.667 l -8.667,2.667 -8.667,-6.667 -6,5.333 -6,-8.667 -12,5.333 -2.667,-8 -11.333,3.333 V 340 l -9.333,2.667 -3.333,-9.333 -9.333,4 -0.667,-6.667 h -13.333 l 3.333,-10 -14.667,4 4,-8.667 -4.667,0.667 6.667,-10 -14,7.333 -0.667,5.333 c 0,0 -2,-3.334 -8,-2.667 -6,0.667 -9.333,2 -2,11.333 7.333,9.333 10.002,15.334 10.002,15.334 z"
   id="path3" />
</svg>