<?xml version="1.0" encoding="UTF-8" standalone="no"?>
<!-- Created with Inkscape (http://www.inkscape.org/) -->

<svg
   xmlns:svg="http://www.w3.org/2000/svg"
   xmlns="http://www.w3.org/2000/svg"
   version="1.1"
   width="210mm"
   height="297mm"
   viewBox="0 0 210 297"
   id="svg5208">
  <defs
     id="defs5202" />
  <g
     id="layer1">
    <path
       d="m -79.164103,158.13044 c 0.16705,-0.0668 2.77293,-0.86863 2.77293,-0.86863 l 0.46772,-0.16704 0.10022,0.66817 -0.16704,1.36976 -0.80181,1.23612 -0.4009,0.70158 h 0.60135 c 0,0 0.80181,0.0334 1.00226,0.10023 0.20046,0.0668 0.93545,0.10022 1.06908,0.20045 0.13364,0.10022 0.56795,0.26727 0.70159,0.4009 0.13363,0.13364 0.43431,0.60136 0.43431,0.60136 l 0.53454,0.80181 c 0,0 0.66817,1.26953 0.70158,1.40316 0.0334,0.13364 0.16704,1.87089 0.16704,2.00453 0,0.13363 -0.10022,1.20271 -0.23386,1.63702 -0.13363,0.43431 -0.4009,1.10249 -0.4009,1.10249 l -0.50113,3.17382 -1.70385,6.91559 1.9043,-0.73498 2.43883,0.10023 c 0,0 0.50113,-0.23386 1.03567,-0.10023 0.53454,0.13362 2.07134,0.4343 2.3052,0.53453 0.23386,0.10024 2.93997,1.1025 2.93997,1.1025 l 2.00452,1.1693 c 0,0 1.26953,1.30293 1.57021,1.63702 0.30068,0.33408 0.60135,0.7684 0.93544,1.26952 0.33409,0.50115 0.80181,1.16933 0.80181,1.16933 l 4.07217,7.78007 2.59859,6.61459 1.98437,7.60676 1.937131,6.37834 0.519718,3.73253 c 0,0 0.188992,1.03945 0.377971,1.60639 0.188989,0.56698 1.88989,2.55136 1.88989,2.55136 0,0 1.052721,0.17883 1.169651,0.17883 0.116919,0 0.133628,0.0501 0.434308,-0.0334 0.300681,-0.0835 0.451022,-0.13364 0.567952,-0.16706 0.11693,-0.0334 0.35079,-0.36751 0.35079,-0.36751 0,0 -0.367501,-0.0835 -0.434321,-0.0835 -0.0668,0 -0.851919,-0.18376 -0.851919,-0.18376 0,0 -0.0167,-0.26729 0.0668,-0.31739 0.0835,-0.0501 0.651471,0 0.651471,0 0,0 0.100229,-0.11692 0.100229,-0.18372 0,-0.0668 0.150331,-0.25059 0,-0.25059 -0.150339,0 -0.81852,0 -0.81852,0 0,0 0.0835,-0.15034 0.217159,-0.26726 0.133631,-0.11694 0.317381,-0.30067 0.317381,-0.30067 0,0 -0.267269,-0.18375 -0.35079,-0.3174 -0.0835,-0.13363 -0.133641,-0.13363 -0.150341,-0.20044 -0.01669,-0.0668 0.0167,-0.28398 -0.317379,-0.43431 -0.334089,-0.15034 -0.501131,0 -0.501131,-0.21717 0,-0.21715 0.100222,-0.35079 0.18374,-0.4176 0.0835,-0.0668 0.3508,0.0668 0.434321,0.0835 0.0835,0.0167 1.252821,0.16703 1.252821,0.16703 0,0 0.183748,0.0835 0.417608,0.0334 0.233862,-0.0501 -0.01669,0.23387 0.30068,-0.10022 0.317381,-0.33409 0.283972,-0.11695 0.40091,-0.51785 0.11693,-0.40089 0.384202,-1.13591 0.384202,-1.13591 l 3.852,-4.22748 3.141919,-2.88208 1.795391,-1.15755 c 0,0 0.590589,-0.25985 0.68508,-0.23622 0.0945,0.0235 0.212619,0.11811 0.236239,0.3071 0.0236,0.18899 0.14174,0.99219 0.14174,0.99219 l -1.653649,4.22859 -0.944941,5.05545 c 0,0 0.0945,1.53551 0.0945,1.60639 0,0.0709 -0.165372,0.0473 -0.188991,0.61421 -0.0236,0.56697 0.0472,0.85045 0.0945,1.37017 0.0472,0.51972 -0.0236,0.63783 0.25986,0.99218 0.28348,0.35436 0.42522,0.25985 0.472469,0.87408 0.0472,0.61421 0.0472,1.22841 0.0472,1.22841 0,0 0.212612,1.3938 0.354352,1.7009 0.14174,0.3071 0.496088,1.18118 0.874069,1.81901 0.377981,0.63783 0.543341,0.66146 0.614209,0.92131 0.0709,0.25987 0.30711,0.8977 0.44885,1.03944 0.14174,0.14173 0.283482,0.59057 0.496091,0.82682 0.212611,0.23625 0.42523,0.23625 0.42523,0.23625 l 0.11811,-0.75597 c 0,0 0.47247,0.44884 0.59059,0.51972 0.118121,0.0709 0.0236,0.11811 0.28348,0.18899 0.259861,0.0709 0.330729,0.28348 0.42523,0.0709 0.0945,-0.2126 0.14174,-0.35433 0.14174,-0.35433 l 0.16536,-0.37799 c 0,0 -0.0709,0.25985 0.377981,0.40159 0.448849,0.14176 0.496088,0.21262 0.708699,0.21262 0.212609,0 0.44885,-0.0236 0.59059,-0.0945 0.14174,-0.0709 0.212611,0.0236 0.425231,-0.23624 0.212608,-0.25985 -0.425231,-0.8032 -0.425231,-0.8032 0,0 0.354351,-0.35435 0.188989,-0.40161 -0.16537,-0.0472 -0.425219,-0.14174 -0.425219,-0.14174 0,0 -0.283491,-0.11811 -0.259861,-0.42521 0.0236,-0.3071 0.14174,-0.5906 -0.0472,-0.75596 -0.188989,-0.16537 -1.98438,-1.39378 -1.98438,-1.39378 0,0 0,-0.16536 -0.28348,-0.42524 -0.28348,-0.25984 -0.42522,-0.16536 -0.28348,-0.25984 0.14174,-0.0945 3.708889,-2.71672 3.708889,-2.71672 l 3.236421,-2.12611 c 0,0 4.65365,-2.84533 4.72046,-2.87875 0.0668,-0.0334 3.240651,-1.35305 3.491212,-1.38644 0.250568,-0.0334 1.971119,-0.35081 1.971119,-0.35081 l 1.102479,-0.11692 2.1801303,-0.18076 c 0,0 1.866259,0.11811 2.362361,0.11811 0.496089,0 3.40178,0.80319 3.40178,0.80319 l 2.645838,1.22844 3.047432,1.37017 3.68527,2.50409 2.92931,2.69307 2.5040907,2.36235 2.480469,3.23641 c 0,0 0.54334,1.06307 0.519721,1.27569 -0.0236,0.21259 -0.188992,0.4961 0.0236,0.42521 0.212611,-0.0708 0.54334,-0.33073 0.54334,-0.33073 0,0 0.118121,-0.21261 0.236231,-0.3071 0.11812,-0.0945 1.346549,-0.42521 1.346549,-0.42521 l 8.244605,-2.52772 2.50409,-0.85045 3.00019,-0.37799 c 0,0 2.3151,-0.14173 2.69308,-0.0945 0.37798,0.0473 3.9215,0.59058 4.11049,0.68508 0.18899,0.0945 1.46466,0.73232 1.46466,0.73232 l 1.24216,0.45581 c 0,0 2.77292,0.96889 3.10701,1.30296 0.33408,0.33407 2.97336,1.90431 2.97336,1.90431 0,0 0.33147,0.35293 0.37872,0.45922 0.0473,0.10632 0.12994,0.22443 0.16537,0.34254 0.0354,0.11814 -0.0354,0.30711 0.0709,0.29531 0.10631,-0.0119 0.37796,-0.12994 0.40158,-0.17717 0.0236,-0.0472 0.31893,-0.22446 0.31893,-0.22446 l 0.54335,-0.0709 3.38998,-0.93313 c 0,0 1.41739,-0.30711 1.63001,-0.35436 0.2126,-0.0473 1.46466,0.0945 1.58277,0.0945 0.11811,0 2.36236,0.49609 2.36236,0.49609 0,0 1.46465,0.59058 1.74812,0.75594 0.28351,0.16537 1.77179,1.20481 1.77179,1.20481 0,0 1.32154,0.55036 1.42176,0.63389 0.10023,0.0835 0.51782,0.65146 0.63476,0.75168 0.11692,0.10025 0.15034,0.10025 0.43432,0.26728 0.28397,0.16703 0.7684,0.46773 0.83521,0.55124 0.0668,0.0835 0.35078,0.41761 0.40089,0.51784 0.0501,0.10022 0.0167,0.4009 0.15034,0.4009 0.13364,0 0.50115,-0.13362 0.65148,-0.15034 0.15034,-0.0167 0.31737,0.0501 0.4009,-0.0167 0.0835,-0.0668 0.4009,-0.3842 0.4009,-0.3842 0,0 0.3842,-0.43431 0.43431,-0.51784 0.0501,-0.0835 0.11695,-0.61804 0.11695,-0.61804 0,0 -0.0501,-2.97339 -0.0501,-3.05692 0,-0.0835 -0.25056,-2.58916 -0.28397,-2.65599 -0.0334,-0.0668 -0.35079,-1.38645 -0.35079,-1.38645 l -0.53453,-0.96885 -1.78036,-4.77766 c 0,0 -0.35436,-0.80319 -0.35436,-1.01581 0,-0.21262 0.0236,-0.42524 -0.0235,-0.56698 -0.0472,-0.14174 0.0709,-0.25985 -0.2126,-0.59058 -0.2835,-0.33072 -1.60641,-1.08669 -1.60641,-1.08669 l -2.26785,-2.00798 c 0,0 -5.88217,-5.2555 -6.04923,-5.37242 -0.16703,-0.11691 -3.25733,-3.20722 -3.34086,-3.27406 -0.0835,-0.0668 -0.68488,-0.3842 -0.86863,-0.56792 -0.18373,-0.18376 -1.88759,-1.25283 -2.08804,-1.47 -0.20045,-0.21715 -2.62257,-1.83748 -2.62257,-1.83748 0,0 -4.69392,-3.0402 -4.92778,-3.19053 -0.23386,-0.15034 -0.63477,-0.65146 -1.08578,-1.10249 -0.45102,-0.45101 -0.81852,-0.8018 -0.93545,-0.86863 -0.11693,-0.0668 -1.20271,-0.30067 -1.48668,-0.4009 -0.28398,-0.10022 -2.50566,-0.70157 -2.57247,-0.7851 -0.0668,-0.0835 -4.05916,-1.97111 -4.05916,-1.97111 l -4.2262,-1.92101 -2.10475,-1.10247 c 0,0 -2.540318,-1.34218 -2.941919,-1.48391 -0.4016,-0.14174 -6.92169,-3.26004 -6.92169,-3.26004 l -5.7168917,-2.48047 -2.102487,-0.96859 c 0,0 0.543337,-0.68506 0.685077,-0.80319 0.14174,-0.11811 0.330732,-0.37796 0.661461,-0.37796 0.330729,0 2.362351,-0.5906 2.45685,-0.66146 0.0945,-0.0709 1.5119,-0.18899 1.606401,-0.18899 0.0945,0 0.25985,-0.14174 0.5433407,-0.37798 0.28348,-0.23625 0.377968,-0.61421 0.42522,-0.73234 0.0472,-0.11811 0.188989,-0.40159 0.188989,-0.40159 0,0 -0.16537,-0.25987 -0.236241,-0.35435 -0.0709,-0.0945 -0.4252197,-0.61422 -0.4252197,-0.61422 0,0 -1.511901,-1.18117 -1.630019,-1.34654 -0.11812,-0.16536 -0.4016,-0.94494 -0.448849,-1.06305 -0.0472,-0.11812 0,-0.61421 0,-0.77958 0,-0.16536 -0.118121,-0.89769 -0.188992,-0.99219 -0.0709,-0.0945 -0.56696,-0.54334 -0.56696,-0.54334 l -1.13393,-1.15755 c 0,0 -1.630019,-0.87407 -1.748139,-0.89769 -0.118121,-0.0236 -1.063062,-0.35436 -1.32292,-0.42523 -0.259849,-0.0709 -0.8032,-0.0945 -1.08668,-0.11811 -0.28348,-0.0236 -0.73233,0.0236 -0.803201,-0.28349 -0.0709,-0.3071 -0.16536001,-1.08668 -0.23623101,-1.29929 -0.0709,-0.21261 -0.118118,-0.44885 -0.28348,-0.68508 -0.16537,-0.23624 -0.401597,-0.61421 -0.496099,-0.70871 -0.0945,-0.0945 -0.0236,-0.23623 -0.30711,-0.23623 -0.283479,0 -0.259849,-0.14174 -0.566959,0.11812 -0.30709999,0.25985 -0.66146099,1.18117 -0.66146099,1.18117 0,0 -0.0236,0.61421 0.0236,0.82683 0.0472,0.21261 0.0709,0.56696 -0.0236,0.85044 -0.0945,0.28348 -0.16536,0.35435 -0.259861,0.37798 -0.0945,0.0236 -1.157549,0.25986 -1.322909,0.35435 -0.165369,0.0945 0.3071,-0.30711 -0.377981,0.23624 -0.685077,0.54334 -0.779579,0.73232 -1.015809,0.96856 -0.236231,0.23623 -0.30711,0.4016 -0.68508,0.44885 -0.377979,0.0472 -0.921319,-0.0236 -1.204799,0.0236 -0.28348,0.0473 -0.921322,0.16537 -0.921322,0.16537 l -0.685077,0.0709 -1.346542,0.0945 c 0,0 -0.637831,0.21262 -0.8740693,0.28348 -0.236241,0.0709 -1.393791,0.14175 -1.393791,0.14175 l -2.645838,-2.5041 -10.5805,-8.35992 c 0,0 -1.63703,-1.73726 -1.737249,-1.93771 -0.100229,-0.20045 -0.16705,-0.93544 -0.200462,-1.30294 -0.0334,-0.36749 0.0668,-0.63476 -0.100218,-0.80181 -0.16704,-0.16704 -0.16704,-0.13363 -0.70158,-0.4009 -0.534541,-0.26727 -1.002271,-0.26727 -1.269532,-0.40091 -0.267269,-0.13363 -1.10249,-0.83521 -1.10249,-0.83521 0,0 -2.138158,-1.67044 -2.839738,-2.40543 -0.70158,-0.73499 -1.00226,-1.30294 -1.804072,-1.63702 -0.801807,-0.33408 -4.977887,-1.23612 -5.612657,-1.40316 -0.634759,-0.16704 -9.287611,-3.00678 -9.48807,-3.0736 -0.200451,-0.0668 -6.04697,-0.93544 -6.64833,-1.00226 -0.60135,-0.0668 -3.74177,-0.30068 -3.74177,-0.30068 l -4.77744,0.53454 -2.50566,0.43431 -4.57699,0.66818 -2.63928,1.30294 c 0,0 -0.90204,0.60135 -1.70385,1.20271 -0.8018,0.60136 -1.23612,0.7684 -1.53679,1.03567 -0.30068,0.26727 -1.40317,1.20271 -1.40317,1.20271 z"
       id="path6345"
       style="fill:#000000;stroke:#000000;stroke-width:0.26458332px;stroke-linecap:butt;stroke-linejoin:miter;stroke-opacity:1" />
  </g>
</svg>
