<?xml version="1.0" encoding="UTF-8" standalone="no"?>
<!-- Created with Inkscape (http://www.inkscape.org/) -->

<svg
   xmlns:svg="http://www.w3.org/2000/svg"
   xmlns="http://www.w3.org/2000/svg"
   version="1.2"
   width="728.69598"
   height="379"
   viewBox="0 0 728.696 379"
   id="Layer_1"
   xml:space="preserve"
   style="overflow:inherit"><defs
   id="defs7" />
<path
   d="m 382.696,0 c -1,0 -2,0 -3,0 -10.694,7.519 -21.442,2.782 -35,1 -0.28,3.613 4.38,2.287 6,4 -6.187,6.712 -19.212,2.537 -30,3 1.494,5.505 11.754,2.246 12,9 -5.842,7.375 -15.51,7.377 -23,10 -7.781,2.725 -15.63,6.459 -23,10 -33.874,16.275 -61.129,33.797 -86,60 -15.749,16.592 -22.96,41.331 -41,56 -11.444,-7.761 -24.694,-13.989 -39,-7 -11.032,5.39 -12.287,19.207 -20,27 -14.759,-0.506 -22.316,-11.887 -37,-10 -14.047,1.805 -28.336,24.594 -25,38 5.887,23.654 32.106,42.322 60,28 3.424,-6.91 4.42,-16.247 7,-24 10.96,1.518 19.607,0.286 26,-5 2.893,3.107 5.25,6.75 6,12 -4.748,5.496 -10.988,3.882 -16,7 -10.771,6.703 -13.275,21.238 -23,31 -1.812,5.188 -3.476,10.524 -6,15 -5.154,2.512 -9.71,5.623 -14,9 -3.705,29.448 -39.566,37.947 -62,54 -9.12,6.526 -21.189,19.229 -15,35 3.193,8.138 12.703,11.881 22,16 1.333,0 2.667,0 4,0 41.657,-3.343 47.893,-42.107 80,-55 38.201,-5.141 68.803,-12.587 92,-31 6.215,-4.933 12.795,-12.993 20,-16 8.718,-3.639 22.565,-2.181 35,-3 20.412,-1.346 33.78,-4.525 43,7 0.098,15.606 11.34,17.171 9,30 -2.28,12.503 -24.203,16.104 -25,27 -0.794,10.849 13.008,20.23 19,28 9.8,-1.525 14.43,4.213 23,5 24.396,2.242 53.083,-7.967 49,-33 -2.026,-12.425 -20.909,-15.862 -26,-31 -3.951,-11.748 1.203,-31.813 -3,-42 -8.793,-21.31 -37.041,-31.483 -56,-40 12.799,-14.843 32.776,-19.844 48,-33 11.14,-9.626 19.303,-24.922 36,-26 10.235,13.781 4.032,34.694 14,47 8.63,10.653 21.826,12.476 29,24 -15.563,3.146 -42.051,-3.17 -49,11 1.776,-0.093 7.327,-4.115 7,0 -0.082,12.584 -12.785,12.549 -14,24 6.674,-6.285 14.935,-6.891 20,1 1.436,10.769 -6.804,11.863 -6,22 6.609,-4.872 8.008,-10.544 16,-8 11.077,3.525 4.569,16.162 8,26 -1.165,-9.925 19.97,-20.264 28,-18 7.331,2.066 3.141,10.641 11,12 -2.041,-8.358 1.7,-15.267 3,-22 1.199,-6.213 0.503,-14.826 5,-22 6.876,-10.966 26.439,-14.482 27,-30 0.38,-10.521 -12.208,-17.986 -13,-28 -0.514,-6.495 2.752,-14.996 5,-22 7.785,-24.255 20.401,-34.946 29,-57 38.24,18.909 71.88,46.785 114,62 27.539,9.948 56.206,11.65 91,11 6.845,-4.821 13.613,-9.72 23,-12 2.776,-5.223 5.895,-10.105 9,-15 -1.527,-5.731 -4.015,-10.275 -4,-15 -15.626,-21.431 -45.122,-26.108 -71,-38 -11.417,-5.246 -22.87,-13.011 -35,-19 -30.649,-15.133 -61.64,-33.303 -93,-44 -7.735,-2.638 -15.354,-2.049 -24,-4 -11.157,-2.519 -25.918,-7.839 -36,-13 -10.799,-5.527 -19.058,-15.009 -29,-21 -15.749,-9.49 -33.135,-15.227 -54,-18 z"
   id="path3"
   style="fill-rule:evenodd" />
</svg>