<?xml version="1.0" encoding="UTF-8" standalone="no"?>
<!-- Created with Inkscape (http://www.inkscape.org/) -->

<svg
   xmlns:svg="http://www.w3.org/2000/svg"
   xmlns="http://www.w3.org/2000/svg"
   version="1.1"
   width="365.33301"
   height="272.66699"
   viewBox="0 0 365.333 272.667"
   id="Layer_1"
   xml:space="preserve"><defs
   id="defs7" />
<path
   d="M 294.625,86.375 298,83.25 l 5.5,-5.75 2.75,-6 4.75,-6.75 2,-5.25 3.75,-4.75 7,-8.5 7.75,-8 6,-6.5 6,-5.75 3.25,-4 3.75,-5.75 2.25,-4.5 2,-3 1.75,-1.25 1.5,2.75 -1.5,3.75 -3.5,8.25 -1.5,5 -1,6 -1.75,7.25 -2.5,6.5 -4.75,11.75 -5.75,13.25 c 0,0 -1.75,7.75 -2.5,8.75 -0.75,1 -6.875,9.5 -6.875,9.5 l -4.375,7.5 -2.5,8 1.25,9 4.25,16.5 2.5,8.25 0.167,9.667 -0.167,5.833 0.833,5.167 2.167,2 0.833,3.833 -0.166,3.5 -1.5,3.834 0.833,2 -1.167,4.833 v 3.167 l 0.167,5.166 -0.333,5.667 -0.417,3.083 1,12 0.25,8 1.75,5.25 -0.25,2.75 -3.75,5.75 -3.5,2.75 H 321 l -4.75,-3.5 -6.25,-6 -4,-4 -4.75,-2.25 -2.5,-0.75 -2.75,-0.25 -5.25,-3.5 -3.681,-1.899 -0.569,8.399 0.25,10 1.75,6.25 0.75,5.5 3.5,6.5 4.75,4.5 2.625,1 1.375,2.375 -2.75,0.25 1,1.125 0.5,2.75 -1.25,2.25 -1.5,0.75 -1.5,0.5 -1.5,-2 -0.358,2.227 -1.642,0.273 -2.125,-0.25 -2,-1.25 -0.905,-0.285 L 286,262 l -1.131,-1.258 -1.619,-3.367 0.208,2.142 -0.441,2.239 0.233,1.994 -1.125,0.75 -2.125,-0.5 -1.75,-1.75 -1.375,-3.375 v -3.5 l -0.25,-1.875 0.563,-2.601 -10.438,-13.149 -0.375,5 1.75,5.875 2.125,3.375 1.125,2.875 0.95,0.975 0.175,3.15 -2.25,4.75 -3.125,0.375 c 0,0 -0.5,3.125 -1.25,3.125 -0.75,0 -2.875,-1 -2.875,-1 l -3,-3.25 -2.875,1.25 -1.125,2 -2.5,-2.5 -1.5,-2.5 -1.75,0.25 h -2 l -1.618,-0.449 -0.915,-1.381 -1.217,1.08 -1,1.75 -1.25,-3 v -2.25 L 241,255 v -3.5 -3.5 l 1.75,-1.5 1.25,-2.75 V 240 l -3,-3.75 -3.5,-6.5 -6.5,-8 -5,-10 -6,-6 -2.75,-2.75 v -3.75 l -3.75,-3.75 -5.75,-9.25 -9.5,3 -7.5,6.5 -8.25,11.25 -4,10.5 -2.25,8.75 v 7 l 3.25,3.5 9.75,2.25 10.25,2.25 10,2 5.5,1.75 3.25,2.5 0.25,4.5 -11,2 -15.5,-0.25 -14,-6.75 -9,-3.25 -7.25,-3.5 -6,-1.5 -4.25,-1.75 -2,-3.25 V 229 l 5.25,-6.25 4.25,-8 2.5,-6 0.25,-3 -3.25,2 V 202 l -1.75,-1.25 -0.5,-3.75 -1,-3.25 0.5,-2.75 2,-5.25 -3.5,0.25 0.25,-5 2,-7.75 -1,-4.25 -3.75,-3 h -2.25 l -6,-3.25 -4.75,9.75 -7.25,12.25 -5.75,8 -3.75,5.75 -10.5,7.5 -9,6.5 -9.75,2.25 -17.5,-2.75 -5.75,-1.75 -11,-1.75 -8,-1 -13.75,-3.5 -12,-1 v -1.25 l -8,-0.25 -8,-0.75 v -2 l -6,-1.5 7.75,-1.75 6,0.25 -0.25,-1.5 6.5,0.75 11.5,0.5 c 0,0 -2,-3.75 0.25,-3.25 2.25,0.5 7.5,1.75 7.5,1.75 0,0 4.25,0.5 6.25,0.5 2,0 2.25,-1.25 2.25,-1.25 l -1,-1.5 4.5,1.5 2.25,-0.25 -0.5,-2 c 0,0 6.75,2.25 7.5,2.25 0.75,0 7,-0.25 7,-0.25 0,0 9.5,2.5 10.75,2.5 1.25,0 8.25,-1.5 8.25,-1.5 l -1.25,-2 5,-1.25 6.25,-2.75 4.75,-4.25 6.75,-5.25 4.5,-5 3.25,-6.75 3.25,-5.5 -4,1 3.25,-5 1.5,-5.25 0.5,-6.25 -2,-0.5 0.25,-3.25 0.5,-5.125 c 0,0 1,-5.375 1.25,-6.375 0.25,-1 1.75,-6 1.75,-6 l 1.186,-2.568 0.314,-0.682 1.5,-8 2.25,-8.5 3.5,-7.75 6,-7.25 2.25,-4.5 2.5,-5.25 10.25,-8.75 5.25,-5.25 8.5,-5.75 5.5,-3.75 5.5,-2.75 L 183.5,52 186,51.25 191,50 197.375,49.125 203.75,48 210.25,47.375 217.375,47 222,46.5 l 5.91,0.068 5.272,0.042 4.317,0.64 7.5,1 8.5,3.25 2.375,0.875 -1,-2 -1.25,-2.25 -0.125,-3 0.25,-7.625 1.375,-5.125 2,-3.625 2.876,-2.25 3.75,0.25 3.5,3.75 1.5,3.25 1,3 2.5,5.5 3,4.25 1.25,2.5 3.25,3.5 1.353,2.809 1.897,3.941 1.696,2.459 3.304,4.791 3.5,8.25 2,6.5 1.125,5.125 0,0 z"
   id="path3" />
</svg>